<?xml version="1.0"?>
<svg xmlns="http://www.w3.org/2000/svg" viewBox="0 0 512 512" width="512" height="512"><g id="outline"><path d="M296,200a24.027,24.027,0,0,0-24,24v16a24,24,0,0,0,48,0V224A24.027,24.027,0,0,0,296,200Zm0,16a8.009,8.009,0,0,1,8,8H288A8.009,8.009,0,0,1,296,216Zm0,32a8.009,8.009,0,0,1-8-8h16A8.009,8.009,0,0,1,296,248Z"/><path d="M434.126,56H400.443l-71.56-7.951-.025,0-.021,0-152-16A8.062,8.062,0,0,0,176,32H48a8,8,0,0,0-8,8v96a8,8,0,0,0,8,8H150.3l68.547,30.465L241.6,204.8a8.01,8.01,0,0,0,1.312,1.371A55.622,55.622,0,0,0,240,224v64a8,8,0,0,0,8,8h24v88h-8a7.993,7.993,0,0,0-4.438,1.344L213.578,416H196a28.032,28.032,0,0,0-28,28v28a8,8,0,0,0,8,8h26.707a27.992,27.992,0,0,0,50.586,0h61.414a27.992,27.992,0,0,0,50.586,0H392a8,8,0,0,0,8-8V432a8,8,0,0,0-4.422-7.155l-15.242-7.621L341,385.753A8,8,0,0,0,336,384H320V368h16a8,8,0,0,0,8-8V328a8,8,0,0,0-8-8H320V296h24a8,8,0,0,0,8-8V224a56.159,56.159,0,0,0-2.331-16H360a8,8,0,0,0,8-8V145.888l1.67,3.34a27.809,27.809,0,0,0,24.934,15.5,28.416,28.416,0,0,0,6.9-.855l16.435-4.109a8,8,0,0,0,5.413-10.912l-7.162-16.711c.123,0,.245.013.369.013a26.364,26.364,0,0,0,8.346-1.354l9.624-3.208a8,8,0,0,0,4.625-11.167l-7.622-15.244,4.635-2.318a27.818,27.818,0,0,0,14.041-16.189l.993-2.979A18,18,0,0,0,434.126,56Zm-167.7,344H288v16H242.422ZM228,480a12,12,0,1,1,12-12A12.013,12.013,0,0,1,228,480Zm112,0a12,12,0,1,1,12-12A12.013,12.013,0,0,1,340,480Zm32.422-48.845L384,436.944V464H367.71a28,28,0,0,0-55.42,0H255.71a28,28,0,0,0-55.42,0H184V444a12.013,12.013,0,0,1,12-12H328a7.993,7.993,0,0,0,4.438-1.344l21.314-14.209,17.25,13.8A8,8,0,0,0,372.422,431.155Zm-31.781-25.2L325.578,416H304V400h29.194ZM312,336h16v16H312a8,8,0,0,0-8,8v24H288V296h16v32A8,8,0,0,0,312,336Zm24-56H256V224a39.607,39.607,0,0,1,3.848-17.127,28.108,28.108,0,0,0,19.02-19.009,39.911,39.911,0,0,1,34.264,0,28.1,28.1,0,0,0,19.014,19.007A40.055,40.055,0,0,1,336,224ZM312,170.334a56.008,56.008,0,0,0-32,0V152a8,8,0,0,0-2.343-5.657L250.294,118.98l9.493-14.238,38.88,6.48L312,137.889ZM352,192H340a12.011,12.011,0,0,1-11.812-9.952,7.842,7.842,0,0,0-.136-1.014c-.029-.342-.052-.685-.052-1.034V136a7.994,7.994,0,0,0-.845-3.578l-16-32a8,8,0,0,0-5.84-4.313l-48-8a8,8,0,0,0-7.971,3.453l-16,24a8,8,0,0,0,1,10.095L264,155.314V180c0,.352-.023.7-.053,1.042a7.91,7.91,0,0,0-.133.994A12.011,12.011,0,0,1,252,192l-21.6-28.8a8,8,0,0,0-3.151-2.511l-72-32A8.011,8.011,0,0,0,152,128H56V48H175.58L323.087,63.527,352,114.125Zm45.624-43.652a11.93,11.93,0,0,1-13.644-6.275l-16.825-33.651c-.041-.083-.091-.158-.135-.239-.027-.05-.046-.1-.074-.152l-16.227-28.4,34.915,21.823,19.312,45.061Zm22.223-32.729a10.826,10.826,0,0,1-13.293-5.97l0-.009-7.2-16.791a8,8,0,0,0-3.113-3.633L375.86,76.478l26.931,2.992,17.929,35.858Zm16.176-40.988-.993,2.98a11.924,11.924,0,0,1-6.017,6.939l-4.635,2.317L416.944,72h17.182a2,2,0,0,1,1.9,2.631Z"/></g></svg>
