<svg id="Capa_1" enable-background="new 0 0 512 512" height="512" viewBox="0 0 512 512" width="512" xmlns="http://www.w3.org/2000/svg"><g><path d="m79.567 311.815c-13.35 0-24.211 10.861-24.211 24.211v27.75c0 13.35 10.861 24.211 24.211 24.211s24.211-10.861 24.211-24.211v-27.75c0-13.35-10.861-24.211-24.211-24.211zm9.211 51.961c0 5.079-4.132 9.211-9.211 9.211s-9.211-4.132-9.211-9.211v-27.75c0-5.079 4.132-9.211 9.211-9.211s9.211 4.132 9.211 9.211z"/><path d="m302.312 336.026v27.75c0 13.35 10.861 24.211 24.211 24.211s24.211-10.861 24.211-24.211v-27.75c0-13.35-10.861-24.211-24.211-24.211s-24.211 10.861-24.211 24.211zm15 0c0-5.079 4.132-9.211 9.211-9.211s9.211 4.132 9.211 9.211v27.75c0 5.079-4.132 9.211-9.211 9.211s-9.211-4.132-9.211-9.211z"/><path d="m268.72 330.565h-131.351c-4.142 0-7.5 3.358-7.5 7.5s3.358 7.5 7.5 7.5h131.351c4.142 0 7.5-3.358 7.5-7.5s-3.357-7.5-7.5-7.5z"/><path d="m268.72 357.573h-131.351c-4.142 0-7.5 3.358-7.5 7.5s3.358 7.5 7.5 7.5h131.351c4.142 0 7.5-3.358 7.5-7.5s-3.357-7.5-7.5-7.5z"/><path d="m479.039 106.972v-18.722c0-14.307-3.517-28.518-10.17-41.097-1.937-3.661-6.474-5.06-10.137-3.123-3.661 1.937-5.06 6.475-3.123 10.137 5.515 10.426 8.43 22.211 8.43 34.083v11.029c-4.271-1.284-8.793-1.984-13.477-1.984h-1.678v-9.044c0-32.034-26.066-58.095-58.105-58.095-32.034 0-58.095 26.062-58.095 58.095v9.044h-1.684c-4.682 0-9.202.699-13.472 1.982v-11.027c0-40.39 32.86-73.25 73.25-73.25 17.608 0 34.642 6.369 47.964 17.934 3.127 2.715 7.864 2.38 10.58-.747 2.715-3.128 2.381-7.865-.747-10.58-16.049-13.934-36.575-21.607-57.796-21.607-48.661 0-88.25 39.589-88.25 88.25v18.718c-11.179 8.575-18.405 22.059-18.405 37.204v11.628c-2.237-.25-4.492-.382-6.757-.382h-148.65c-29.951 0-55.034 21.483-59.645 51.083l-2.195 14.111h-22.429c-7.849 0-15.229 3.058-20.781 8.609s-8.609 12.932-8.609 20.781c0 16.206 13.185 29.39 29.39 29.39h13.286l-1.326 8.523c-24.515 10.023-41.84 34.122-41.84 62.205v9.81c0 14.44 4.534 28.178 12.916 39.611-7.806 5.469-12.923 14.524-12.923 24.757 0 16.662 13.555 30.217 30.217 30.217h6.882v21.243c0 19.984 16.259 36.242 36.243 36.242s36.242-16.258 36.242-36.243v-21.243h154.791v21.243c0 19.984 16.258 36.243 36.243 36.243 19.984 0 36.242-16.258 36.242-36.243v-21.243h9.89c16.662 0 30.217-13.555 30.217-30.217 0-10.231-5.116-19.284-12.918-24.753 8.383-11.433 12.918-25.173 12.918-39.615v-9.81c0-28.086-17.331-52.187-41.854-62.208l-1.324-8.515h13.291c7.85 0 15.23-3.057 20.781-8.609 3.942-3.942 6.618-8.808 7.844-14.106h60.295c25.848 0 46.877-21.029 46.877-46.877v-65.632c.001-15.143-7.223-28.624-18.399-37.2zm-131.356-18.721c0-23.763 19.333-43.095 43.095-43.095 23.768 0 43.105 19.333 43.105 43.095v9.044h-86.2zm-303.235 176.141c-7.935 0-14.39-6.456-14.39-14.39 0-3.843 1.497-7.457 4.215-10.175 2.719-2.719 6.332-4.216 10.175-4.216h20.096l-4.477 28.781zm39.446-55.585c3.464-22.245 22.315-38.39 44.823-38.39h148.649c2.273 0 4.53.183 6.757.516v15.423c-2.206-.504-4.47-.787-6.757-.787h-148.649c-14.994 0-27.545 10.752-29.844 25.564l-11.174 71.807h-5.96c-3.22 0-6.383.242-9.482.682zm25.251 266.95c0 11.713-9.529 21.243-21.242 21.243-11.713 0-21.242-9.529-21.242-21.243v-21.243h42.485v21.243zm227.276 0c0 11.713-9.529 21.243-21.242 21.243-11.713 0-21.242-9.529-21.242-21.243v-21.243h42.485v21.243zm24.89-36.242h-316.533c-8.391 0-15.217-6.826-15.217-15.217s6.826-15.217 15.217-15.217h316.533c8.391 0 15.217 6.826 15.217 15.217s-6.826 15.217-15.217 15.217zm15.218-89.395v9.81c0 12.728-4.54 24.751-12.834 34.254-.787-.062-1.58-.103-2.383-.103h-316.534c-.8 0-1.59.041-2.375.102-8.294-9.503-12.834-21.526-12.834-34.253v-9.81c0-28.772 23.403-52.18 52.17-52.18h36.14c4.142 0 7.5-3.358 7.5-7.5s-3.358-7.5-7.5-7.5h-14.999l10.815-69.503c1.157-7.456 7.475-12.868 15.022-12.868h148.649c2.398 0 4.684.542 6.757 1.563v7.672c0 12.369 4.824 23.626 12.678 32.012l6.402 41.123h-4.587c-1.896-25.36-23.121-45.419-48.958-45.419-25.836 0-47.062 20.059-48.958 45.419h-52.822c-4.142 0-7.5 3.358-7.5 7.5s3.358 7.5 7.5 7.5h176.47c28.773.001 52.181 23.409 52.181 52.181zm-92.963-67.18h-67.816c1.847-17.078 16.347-30.419 33.908-30.419s32.061 13.341 33.908 30.419zm40.783 0h-5.965l-4.6-29.548c4.932 1.955 10.268 3.094 15.849 3.255l4.194 26.974c-3.098-.439-6.26-.681-9.478-.681zm47.467-22.758c-2.718 2.718-6.332 4.215-10.175 4.215h-15.623l-1.2-7.715h29.573c-.668 1.273-1.529 2.453-2.575 3.5zm110.623-50.377c0 17.577-14.3 31.877-31.877 31.877h-119.562c-17.577 0-31.877-14.3-31.877-31.877v-65.632c0-17.577 14.3-31.877 31.877-31.877h119.562c17.577 0 31.877 14.3 31.877 31.877z"/><path d="m390.781 126.385c-20.169 0-36.578 16.409-36.578 36.578 0 12.359 6.362 23.902 16.544 30.601v19.031c0 11.046 8.987 20.034 20.034 20.034s20.034-8.987 20.034-20.034v-19.031c10.182-6.699 16.544-18.242 16.544-30.601 0-20.169-16.409-36.578-36.578-36.578zm9.297 56.056c-2.605 1.247-4.263 3.878-4.263 6.766v23.389c0 2.775-2.258 5.034-5.034 5.034s-5.034-2.258-5.034-5.034v-23.389c0-2.888-1.658-5.519-4.263-6.766-7.46-3.569-12.281-11.215-12.281-19.478 0-11.898 9.68-21.578 21.578-21.578s21.578 9.68 21.578 21.578c0 8.263-4.821 15.909-12.281 19.478z"/></g></svg>