<?xml version="1.0"?>
<svg xmlns="http://www.w3.org/2000/svg" id="Line_cutting_cutting_Ex" data-name="Line cutting cutting Ex" width="512" height="512" viewBox="0 0 512 512"><g><path d="M64,44A12.013,12.013,0,0,1,76,32H292a12.013,12.013,0,0,1,12,12v4h16V44a28.032,28.032,0,0,0-28-28H76A28.032,28.032,0,0,0,48,44V88H64Z"/><path d="M304,468a12.013,12.013,0,0,1-12,12H76a12.013,12.013,0,0,1-12-12V248H96V400h16V240a8,8,0,0,0-8-8H64V208h40a8,8,0,0,0,8-8V88H96V192H64V104H48V468a28.032,28.032,0,0,0,28,28H292a28.032,28.032,0,0,0,28-28V448H304Z"/><path d="M224,184V168H136a8,8,0,0,0-8,8v88a8,8,0,0,0,8,8h40V256H144V184Z"/><path d="M128,304v96h16V312h32V296H136A8,8,0,0,0,128,304Z"/><path d="M224,128H144V88H128v48a8,8,0,0,0,8,8h88Z"/><path d="M189.657,109.657a80.3,80.3,0,0,0,9-11.219c6.2-9.3,9.344-18.2,9.344-26.438a24,24,0,0,0-48,0c0,18.772,16.466,35.779,18.343,37.657a8,8,0,0,0,11.314,0ZM176,72a8,8,0,0,1,16,0c0,6.636-4.079,14.05-8,19.514C180.078,86.048,176,78.635,176,72Z"/><path d="M464,384V360.13a7.946,7.946,0,0,0-.554-3.056l-.012-.028q-.033-.084-.069-.168l-.021-.05c-.022-.051-.045-.1-.068-.152l-.024-.054c-.032-.067-.064-.133-.1-.2l-23.73-47.459-18.948-58.452c-.038-.115-.077-.229-.12-.343A28.128,28.128,0,0,0,394.14,232H331.746c5.479-5.684,11.973-12.842,18.5-21C372.644,183,384,157.769,384,136a72,72,0,0,0-144,0c0,21.769,11.356,47,33.753,75,6.528,8.16,13.022,15.318,18.5,21H229.86a28.128,28.128,0,0,0-26.217,18.168c-.043.114-.082.228-.12.343l-18.948,58.452-23.73,47.459c-.033.067-.065.133-.1.2l-.024.054c-.023.051-.046.1-.068.152l-.021.05q-.036.084-.069.168l-.012.028A7.946,7.946,0,0,0,160,360.13V414a18,18,0,0,0,8,14.96V446a18.021,18.021,0,0,0,18,18h36a18.021,18.021,0,0,0,18-18V432H384v14a18.021,18.021,0,0,0,18,18h36a18.021,18.021,0,0,0,18-18V428.96A18,18,0,0,0,464,414V400H448v14a2,2,0,0,1-2,2H396.944l10.147-20.293a7.95,7.95,0,0,0,.9-3.31v-.014c0-.071,0-.142.007-.213,0-.026,0-.052,0-.078s0-.061,0-.092v-8h16a7.994,7.994,0,0,0,3.578-.845L448,372.944V384ZM256,136a56,56,0,0,1,112,0c0,17.74-10.4,40.15-30.091,64.807A297.657,297.657,0,0,1,312,229.091,297.289,297.289,0,0,1,286.247,201C266.459,176.268,256,153.791,256,136ZM176,414V372.944l20.422,10.211A7.994,7.994,0,0,0,200,384h16v8c0,.031,0,.061,0,.092v.078c0,.071,0,.142.007.213v.014a7.965,7.965,0,0,0,.9,3.31L227.056,416H178A2,2,0,0,1,176,414Zm13.916-79.943,37.75,26.964L220.687,368h-18.8l-23.156-11.578ZM232,379.314,243.314,368H272a31.8,31.8,0,0,0,4.3,16H232ZM288,368a16.019,16.019,0,0,1,16-16h16a16,16,0,0,1,0,32H304A16.019,16.019,0,0,1,288,368Zm64,0h28.686L392,379.314V384h-44.3A31.8,31.8,0,0,0,352,368Zm29.437-16H347.705A32.019,32.019,0,0,0,320,336H304a32.019,32.019,0,0,0-27.7,16H242.564l-44.8-32H426.237ZM218.681,255.639A12.055,12.055,0,0,1,229.86,248H394.14a12.055,12.055,0,0,1,11.179,7.639L421,304H203ZM224,446a2,2,0,0,1-2,2H186a2,2,0,0,1-2-2V432h40Zm20.944-30-8-16H387.056l-8,16ZM440,432v14a2,2,0,0,1-2,2H402a2,2,0,0,1-2-2V432Zm-17.889-64h-18.8l-6.979-6.979,37.75-26.964,11.183,22.365Z"/><path d="M344,136a32,32,0,1,0-32,32A32.036,32.036,0,0,0,344,136Zm-48,0a16,16,0,1,1,16,16A16.019,16.019,0,0,1,296,136Z"/></g></svg>
