<svg id="Capa_1" enable-background="new 0 0 512 512" height="512" viewBox="0 0 512 512" width="512" xmlns="http://www.w3.org/2000/svg"><g><path d="m301.25 361.5h30v30h-30z"/><path d="m512 421.75h-14.125v-120.5h-92.133l-92.375-90.375h-185.895l-60.25 90.375h-53.097v120.5h-14.125v30h52.189c0 .021-.002.041-.002.062 0 33.188 27 60.188 60.188 60.188 33.187 0 60.187-27 60.187-60.188 0-.021-.002-.041-.002-.062h166.878c0 .021-.002.041-.002.062 0 33.188 27 60.188 60.188 60.188s60.188-27 60.188-60.188c0-.021-.002-.041-.002-.062h52.19zm-149.156-120.5h-91.844v-60.375h30.133zm-121.844 0h-60.372v-60.375h60.372zm-97.472-60.375h7.1v60.375h-47.35zm-31.153 241.125c-16.646 0-30.188-13.542-30.188-30.188s13.542-30.188 30.188-30.188 30.187 13.542 30.187 30.188-13.541 30.188-30.187 30.188zm0-90.375c-22.242 0-41.69 12.136-52.109 30.125h-16.141v-30.25h31.125v-30h-31.125v-30.25h196.875v90.5h-76.516c-10.419-17.989-29.867-30.125-52.109-30.125zm287.25 90.375c-16.646 0-30.188-13.542-30.188-30.188s13.542-30.188 30.188-30.188 30.188 13.542 30.188 30.188-13.542 30.188-30.188 30.188zm0-90.375c-22.242 0-41.69 12.136-52.109 30.125h-76.516v-90.5h196.875v30.25h-31.125v30h31.125v30.25h-16.141c-10.419-17.989-29.867-30.125-52.109-30.125z"/><path d="m105.375 210.75c58.104 0 105.375-47.271 105.375-105.375s-47.271-105.375-105.375-105.375-105.375 47.271-105.375 105.375 47.271 105.375 105.375 105.375zm0-180.75c41.562 0 75.375 33.813 75.375 75.375s-33.813 75.375-75.375 75.375-75.375-33.813-75.375-75.375 33.813-75.375 75.375-75.375z"/><path d="m155.625 90.375h-35.25v-35.25h-30v65.25h65.25z"/></g></svg>